# MagicaVoxel @ Ephtracy

# group
o 

# material
mtllib 3x3x3.mtl
usemtl palette

# normals
vn -1 0 0
vn 1 0 0
vn 0 0 1
vn 0 0 -1
vn 0 -1 0
vn 0 1 0

# texcoords
vt 0.658203 0.5
vt 0.669922 0.5
vt 0.681641 0.5
vt 0.751953 0.5
vt 0.775391 0.5
vt 0.779297 0.5
vt 0.798828 0.5
vt 0.830078 0.5
vt 0.919922 0.5
vt 0.923828 0.5
vt 0.931641 0.5

# verts
v -0.3 0.2 0.3
v -0.3 0.2 0.2
v -0.3 0.2 0.1
v -0.3 0.2 -0.1
v -0.3 0.2 -0.2
v -0.3 0.2 -0.3
v -0.3 0.3 0.3
v -0.3 0.3 0.2
v -0.3 0.3 0
v -0.3 0.3 -0.1
v -0.3 0.3 -0.2
v -0.3 0.3 -0.3
v -0.3 0.4 0.1
v -0.3 0.4 0
v -0.3 0.4 -0.1
v -0.3 0.5 0.3
v -0.3 0.5 0.2
v -0.3 0.5 0
v -0.3 0.5 -0.1
v -0.3 0.5 -0.2
v -0.3 0.5 -0.3
v -0.3 0.6 0.3
v -0.3 0.6 0.2
v -0.3 0.6 -0.2
v -0.3 0.6 -0.3
v -0.2 0 0.2
v -0.2 0 0.1
v -0.2 0.1 0.3
v -0.2 0.1 0.2
v -0.2 0.1 0.1
v -0.2 0.1 0
v -0.2 0.1 -0.1
v -0.2 0.1 -0.2
v -0.2 0.2 0.3
v -0.2 0.2 0.2
v -0.2 0.2 0.1
v -0.2 0.2 0
v -0.2 0.2 -0.1
v -0.2 0.2 -0.2
v -0.2 0.3 0.2
v -0.2 0.3 0.1
v -0.2 0.3 0
v -0.2 0.3 -0.1
v -0.2 0.3 -0.2
v -0.2 0.4 0.3
v -0.2 0.4 0.2
v -0.2 0.4 0.1
v -0.2 0.4 0
v -0.2 0.4 -0.1
v -0.2 0.4 -0.2
v -0.2 0.5 0.3
v -0.2 0.5 0.2
v -0.2 0.5 0
v -0.2 0.5 -0.1
v -0.2 0.6 0.1
v -0.2 0.6 -0.1
v -0.1 0.3 0.3
v -0.1 0.3 0.2
v -0.1 0.4 0.3
v -0.1 0.4 0.2
v -0.1 0.4 0.1
v -0.1 0.4 -0.1
v -0.1 0.4 -0.2
v -0.1 0.5 0.2
v -0.1 0.5 0.1
v -0.1 0.6 -0.1
v -0.1 0.6 -0.2
v 0 0 0.2
v 0 0 0.1
v 0 0.1 0.2
v 0 0.1 0.1
v 0 0.2 0.3
v 0 0.2 0.2
v 0 0.2 -0.2
v 0 0.2 -0.3
v 0 0.3 0.3
v 0 0.3 0.2
v 0 0.3 -0.2
v 0 0.3 -0.3
v 0 0.4 -0.2
v 0 0.4 -0.3
v 0.2 0 0.3
v 0.2 0 0.2
v 0.2 0 -0.1
v 0.2 0 -0.2
v 0.2 0.1 0.3
v 0.2 0.1 0.2
v 0.2 0.1 -0.1
v 0.2 0.1 -0.2
v 0.2 0.4 0.2
v 0.2 0.4 0.1
v 0.2 0.5 0.2
v 0.2 0.5 0.1
v 0.2 0.5 0
v 0.2 0.6 0.1
v 0.2 0.6 0
v -0.2 0.2 -0.2
v -0.2 0.2 -0.3
v -0.2 0.3 -0.2
v -0.2 0.3 -0.3
v -0.2 0.5 0.3
v -0.2 0.5 0.2
v -0.2 0.5 -0.2
v -0.2 0.5 -0.3
v -0.2 0.6 0.3
v -0.2 0.6 0.2
v -0.2 0.6 -0.2
v -0.2 0.6 -0.3
v -0.1 0 0.2
v -0.1 0 0.1
v -0.1 0.1 0.3
v -0.1 0.1 0.2
v -0.1 0.1 0.1
v -0.1 0.2 0.2
v -0.1 0.3 0.3
v -0.1 0.3 0.2
v -0.1 0.4 0.3
v -0.1 0.4 0.2
v -0.1 0.5 0.3
v -0.1 0.5 0.2
v -0.1 0.5 0.1
v -0.1 0.5 0
v -0.1 0.6 0.1
v -0.1 0.6 0
v 0 0.3 0.3
v 0 0.3 0.2
v 0 0.4 0.3
v 0 0.4 0.2
v 0 0.5 -0.1
v 0 0.5 -0.2
v 0 0.6 -0.1
v 0 0.6 -0.2
v 0.1 0 0.2
v 0.1 0 0.1
v 0.1 0.1 0.2
v 0.1 0.1 0.1
v 0.1 0.2 -0.2
v 0.1 0.2 -0.3
v 0.1 0.3 -0.2
v 0.1 0.3 -0.3
v 0.1 0.4 0.2
v 0.1 0.4 0.1
v 0.1 0.4 -0.2
v 0.1 0.4 -0.3
v 0.1 0.5 0.2
v 0.1 0.5 0.1
v 0.2 0.1 0.2
v 0.2 0.1 -0.1
v 0.2 0.1 -0.2
v 0.2 0.2 0.3
v 0.2 0.2 0.2
v 0.2 0.2 0.1
v 0.2 0.2 0
v 0.2 0.2 -0.2
v 0.2 0.3 0.3
v 0.2 0.3 0.2
v 0.2 0.3 0.1
v 0.2 0.3 0
v 0.2 0.3 -0.2
v 0.2 0.4 0.2
v 0.2 0.4 0.1
v 0.2 0.4 0
v 0.2 0.4 -0.1
v 0.2 0.4 -0.2
v 0.2 0.5 0.1
v 0.2 0.5 0
v 0.2 0.5 -0.1
v 0.2 0.5 -0.2
v 0.2 0.6 0
v 0.2 0.6 -0.1
v 0.3 0 0.3
v 0.3 0 0.2
v 0.3 0 -0.1
v 0.3 0 -0.2
v 0.3 0.1 0.3
v 0.3 0.1 0.2
v 0.3 0.1 -0.1
v 0.3 0.1 -0.2
v 0.3 0.2 0.2
v 0.3 0.2 0.1
v 0.3 0.2 0
v 0.3 0.2 -0.2
v 0.3 0.3 0.2
v 0.3 0.3 0.1
v 0.3 0.3 0
v 0.3 0.3 -0.2
v 0.3 0.4 0.2
v 0.3 0.4 0.1
v 0.3 0.4 0
v 0.3 0.5 0.2
v 0.3 0.5 0.1
v 0.3 0.5 0
v 0.3 0.6 0.1
v 0.3 0.6 0
v -0.3 0.2 0.3
v -0.3 0.3 0.3
v -0.3 0.5 0.3
v -0.3 0.6 0.3
v -0.2 0.1 0.3
v -0.2 0.2 0.3
v -0.2 0.3 0.3
v -0.2 0.4 0.3
v -0.2 0.5 0.3
v -0.2 0.6 0.3
v -0.1 0.1 0.3
v -0.1 0.3 0.3
v -0.1 0.4 0.3
v -0.1 0.5 0.3
v 0 0.2 0.3
v 0 0.3 0.3
v 0 0.4 0.3
v 0.2 0 0.3
v 0.2 0.1 0.3
v 0.2 0.2 0.3
v 0.2 0.3 0.3
v 0.3 0 0.3
v 0.3 0.1 0.3
v -0.2 0 0.2
v -0.2 0.1 0.2
v -0.2 0.3 0.2
v -0.2 0.4 0.2
v -0.1 0 0.2
v -0.1 0.1 0.2
v -0.1 0.2 0.2
v -0.1 0.3 0.2
v -0.1 0.4 0.2
v -0.1 0.5 0.2
v 0 0 0.2
v 0 0.1 0.2
v 0 0.2 0.2
v 0 0.3 0.2
v 0 0.4 0.2
v 0.1 0 0.2
v 0.1 0.1 0.2
v 0.1 0.2 0.2
v 0.1 0.4 0.2
v 0.1 0.5 0.2
v 0.2 0.1 0.2
v 0.2 0.2 0.2
v 0.2 0.3 0.2
v 0.2 0.4 0.2
v 0.2 0.5 0.2
v 0.3 0.2 0.2
v 0.3 0.3 0.2
v 0.3 0.4 0.2
v 0.3 0.5 0.2
v -0.3 0.2 0.1
v -0.3 0.4 0.1
v -0.2 0.2 0.1
v -0.2 0.3 0.1
v -0.2 0.4 0.1
v -0.2 0.6 0.1
v -0.1 0.4 0.1
v -0.1 0.5 0.1
v -0.1 0.6 0.1
v 0.1 0.4 0.1
v 0.1 0.5 0.1
v 0.2 0.3 0.1
v 0.2 0.4 0.1
v 0.2 0.5 0.1
v 0.2 0.6 0.1
v 0.3 0.3 0.1
v 0.3 0.4 0.1
v 0.3 0.5 0.1
v 0.3 0.6 0.1
v -0.3 0.4 0
v -0.3 0.5 0
v -0.2 0.4 0
v -0.2 0.5 0
v -0.1 0.5 0
v -0.1 0.6 0
v 0.2 0.2 0
v 0.2 0.3 0
v 0.2 0.5 0
v 0.2 0.6 0
v 0.3 0.2 0
v 0.3 0.3 0
v 0.2 0 -0.1
v 0.2 0.1 -0.1
v 0.3 0 -0.1
v 0.3 0.1 -0.1
v -0.3 0.2 -0.2
v -0.3 0.3 -0.2
v -0.3 0.5 -0.2
v -0.3 0.6 -0.2
v -0.2 0.2 -0.2
v -0.2 0.3 -0.2
v -0.2 0.5 -0.2
v -0.2 0.6 -0.2
v -0.3 0.2 0.2
v -0.3 0.3 0.2
v -0.3 0.5 0.2
v -0.3 0.6 0.2
v -0.2 0.2 0.2
v -0.2 0.3 0.2
v -0.2 0.4 0.2
v -0.2 0.5 0.2
v -0.2 0.6 0.2
v -0.1 0.4 0.2
v -0.1 0.5 0.2
v 0.2 0 0.2
v 0.2 0.1 0.2
v 0.3 0 0.2
v 0.3 0.1 0.2
v -0.2 0 0.1
v -0.2 0.1 0.1
v -0.1 0 0.1
v -0.1 0.1 0.1
v 0 0 0.1
v 0 0.1 0.1
v 0.1 0 0.1
v 0.1 0.1 0.1
v 0.2 0.2 0.1
v 0.2 0.3 0.1
v 0.2 0.4 0.1
v 0.2 0.5 0.1
v 0.3 0.2 0.1
v 0.3 0.3 0.1
v 0.3 0.4 0.1
v 0.3 0.5 0.1
v -0.3 0.3 0
v -0.3 0.4 0
v -0.2 0.3 0
v -0.2 0.4 0
v 0.2 0.3 0
v 0.2 0.4 0
v 0.2 0.5 0
v 0.2 0.6 0
v 0.3 0.3 0
v 0.3 0.4 0
v 0.3 0.5 0
v 0.3 0.6 0
v -0.3 0.2 -0.1
v -0.3 0.3 -0.1
v -0.3 0.4 -0.1
v -0.3 0.5 -0.1
v -0.2 0.2 -0.1
v -0.2 0.3 -0.1
v -0.2 0.4 -0.1
v -0.2 0.5 -0.1
v -0.2 0.6 -0.1
v -0.1 0.4 -0.1
v -0.1 0.6 -0.1
v 0 0.5 -0.1
v 0 0.6 -0.1
v 0.1 0.5 -0.1
v 0.2 0.5 -0.1
v 0.2 0.6 -0.1
v -0.2 0.1 -0.2
v -0.2 0.2 -0.2
v -0.2 0.3 -0.2
v -0.2 0.4 -0.2
v -0.1 0.4 -0.2
v -0.1 0.6 -0.2
v 0 0.2 -0.2
v 0 0.3 -0.2
v 0 0.4 -0.2
v 0 0.5 -0.2
v 0 0.6 -0.2
v 0.1 0.2 -0.2
v 0.1 0.3 -0.2
v 0.1 0.4 -0.2
v 0.1 0.5 -0.2
v 0.2 0 -0.2
v 0.2 0.1 -0.2
v 0.2 0.2 -0.2
v 0.2 0.3 -0.2
v 0.2 0.4 -0.2
v 0.2 0.5 -0.2
v 0.3 0 -0.2
v 0.3 0.1 -0.2
v 0.3 0.2 -0.2
v 0.3 0.3 -0.2
v -0.3 0.2 -0.3
v -0.3 0.3 -0.3
v -0.3 0.5 -0.3
v -0.3 0.6 -0.3
v -0.2 0.2 -0.3
v -0.2 0.3 -0.3
v -0.2 0.5 -0.3
v -0.2 0.6 -0.3
v 0 0.2 -0.3
v 0 0.3 -0.3
v 0 0.4 -0.3
v 0.1 0.2 -0.3
v 0.1 0.3 -0.3
v 0.1 0.4 -0.3
v 0.2 0 0.3
v 0.3 0 0.3
v -0.2 0 0.2
v -0.1 0 0.2
v 0 0 0.2
v 0.1 0 0.2
v 0.2 0 0.2
v 0.3 0 0.2
v -0.2 0 0.1
v -0.1 0 0.1
v 0 0 0.1
v 0.1 0 0.1
v 0.2 0 -0.1
v 0.3 0 -0.1
v 0.2 0 -0.2
v 0.3 0 -0.2
v -0.2 0.1 0.3
v -0.1 0.1 0.3
v -0.2 0.1 0.2
v -0.1 0.1 0.2
v 0 0.1 0.2
v 0.1 0.1 0.2
v 0.2 0.1 0.2
v -0.2 0.1 0.1
v -0.1 0.1 0.1
v 0 0.1 0.1
v 0.1 0.1 0.1
v -0.2 0.1 0
v -0.1 0.1 0
v 0.1 0.1 0
v -0.2 0.1 -0.1
v -0.1 0.1 -0.1
v 0.2 0.1 -0.1
v -0.2 0.1 -0.2
v 0.2 0.1 -0.2
v -0.3 0.2 0.3
v -0.2 0.2 0.3
v 0 0.2 0.3
v 0.2 0.2 0.3
v -0.3 0.2 0.2
v -0.2 0.2 0.2
v 0 0.2 0.2
v 0.1 0.2 0.2
v 0.2 0.2 0.2
v 0.3 0.2 0.2
v -0.3 0.2 0.1
v -0.2 0.2 0.1
v 0.2 0.2 0.1
v 0.3 0.2 0.1
v -0.2 0.2 0
v 0.2 0.2 0
v 0.3 0.2 0
v -0.3 0.2 -0.1
v -0.2 0.2 -0.1
v -0.3 0.2 -0.2
v -0.2 0.2 -0.2
v 0 0.2 -0.2
v 0.1 0.2 -0.2
v 0.2 0.2 -0.2
v 0.3 0.2 -0.2
v -0.3 0.2 -0.3
v -0.2 0.2 -0.3
v 0 0.2 -0.3
v 0.1 0.2 -0.3
v -0.1 0.3 0.3
v 0 0.3 0.3
v -0.1 0.3 0.2
v 0 0.3 0.2
v 0.2 0.3 0.1
v 0.3 0.3 0.1
v 0.2 0.3 0
v 0.3 0.3 0
v -0.2 0.4 0.3
v -0.1 0.4 0.3
v -0.2 0.4 0.2
v -0.1 0.4 0.2
v 0.2 0.4 0.2
v 0.3 0.4 0.2
v 0.2 0.4 0.1
v 0.3 0.4 0.1
v -0.3 0.4 0
v -0.2 0.4 0
v -0.3 0.4 -0.1
v -0.2 0.4 -0.1
v -0.3 0.5 0.3
v -0.2 0.5 0.3
v -0.3 0.5 0.2
v -0.2 0.5 0.2
v 0.2 0.5 0.1
v 0.3 0.5 0.1
v 0.2 0.5 0
v 0.3 0.5 0
v -0.3 0.5 -0.2
v -0.2 0.5 -0.2
v -0.3 0.5 -0.3
v -0.2 0.5 -0.3
v 0.2 0.1 0.3
v 0.3 0.1 0.3
v 0.2 0.1 0.2
v 0.3 0.1 0.2
v 0.2 0.1 -0.1
v 0.3 0.1 -0.1
v 0.2 0.1 -0.2
v 0.3 0.1 -0.2
v -0.3 0.3 0.3
v -0.2 0.3 0.3
v -0.1 0.3 0.3
v 0 0.3 0.3
v 0.2 0.3 0.3
v -0.3 0.3 0.2
v -0.2 0.3 0.2
v -0.1 0.3 0.2
v 0 0.3 0.2
v 0.2 0.3 0.2
v 0.3 0.3 0.2
v 0.2 0.3 0.1
v 0.3 0.3 0.1
v -0.3 0.3 0
v -0.2 0.3 0
v 0.2 0.3 0
v 0.3 0.3 0
v -0.3 0.3 -0.1
v -0.2 0.3 -0.1
v -0.3 0.3 -0.2
v -0.2 0.3 -0.2
v 0.2 0.3 -0.2
v 0.3 0.3 -0.2
v -0.3 0.3 -0.3
v -0.2 0.3 -0.3
v -0.1 0.4 0.3
v 0 0.4 0.3
v -0.2 0.4 0.2
v -0.1 0.4 0.2
v 0 0.4 0.2
v 0.1 0.4 0.2
v 0.2 0.4 0.2
v -0.3 0.4 0.1
v -0.2 0.4 0.1
v -0.1 0.4 0.1
v 0.1 0.4 0.1
v 0.2 0.4 0.1
v 0.3 0.4 0.1
v -0.3 0.4 0
v -0.2 0.4 0
v 0.2 0.4 0
v 0.3 0.4 0
v -0.2 0.4 -0.1
v -0.1 0.4 -0.1
v -0.2 0.4 -0.2
v -0.1 0.4 -0.2
v 0 0.4 -0.2
v 0.1 0.4 -0.2
v 0 0.4 -0.3
v 0.1 0.4 -0.3
v -0.2 0.5 0.3
v -0.1 0.5 0.3
v -0.2 0.5 0.2
v -0.1 0.5 0.2
v 0.1 0.5 0.2
v 0.2 0.5 0.2
v 0.3 0.5 0.2
v -0.1 0.5 0.1
v 0.1 0.5 0.1
v 0.2 0.5 0.1
v 0.3 0.5 0.1
v -0.3 0.5 0
v -0.2 0.5 0
v -0.1 0.5 0
v 0.2 0.5 0
v -0.3 0.5 -0.1
v -0.2 0.5 -0.1
v 0 0.5 -0.1
v 0.1 0.5 -0.1
v 0.2 0.5 -0.1
v 0 0.5 -0.2
v 0.1 0.5 -0.2
v 0.2 0.5 -0.2
v -0.3 0.6 0.3
v -0.2 0.6 0.3
v -0.3 0.6 0.2
v -0.2 0.6 0.2
v -0.2 0.6 0.1
v -0.1 0.6 0.1
v 0.2 0.6 0.1
v 0.3 0.6 0.1
v -0.1 0.6 0
v 0.2 0.6 0
v 0.3 0.6 0
v -0.2 0.6 -0.1
v -0.1 0.6 -0.1
v 0 0.6 -0.1
v 0.2 0.6 -0.1
v -0.3 0.6 -0.2
v -0.2 0.6 -0.2
v -0.1 0.6 -0.2
v 0 0.6 -0.2
v -0.3 0.6 -0.3
v -0.2 0.6 -0.3

# faces
f 7/9/1 2/9/1 1/9/1
f 8/9/1 2/9/1 7/9/1
f 9/3/1 4/3/1 3/3/1
f 10/3/1 4/3/1 9/3/1
f 11/4/1 6/4/1 5/4/1
f 12/4/1 6/4/1 11/4/1
f 13/3/1 9/3/1 3/3/1
f 14/3/1 9/3/1 13/3/1
f 18/3/1 15/3/1 14/3/1
f 19/3/1 15/3/1 18/3/1
f 22/2/1 17/2/1 16/2/1
f 23/2/1 17/2/1 22/2/1
f 24/9/1 21/9/1 20/9/1
f 25/9/1 21/9/1 24/9/1
f 29/4/1 27/4/1 26/4/1
f 30/4/1 27/4/1 29/4/1
f 34/7/1 29/7/1 28/7/1
f 35/8/1 30/8/1 29/8/1
f 35/7/1 29/7/1 34/7/1
f 35/8/1 31/8/1 30/8/1
f 36/8/1 31/8/1 35/8/1
f 37/10/1 32/10/1 31/10/1
f 37/8/1 31/8/1 36/8/1
f 38/11/1 33/11/1 32/11/1
f 38/10/1 32/10/1 37/10/1
f 39/11/1 33/11/1 38/11/1
f 40/5/1 36/5/1 35/5/1
f 41/5/1 36/5/1 40/5/1
f 43/6/1 39/6/1 38/6/1
f 44/6/1 39/6/1 43/6/1
f 46/1/1 41/1/1 40/1/1
f 47/1/1 41/1/1 46/1/1
f 48/1/1 43/1/1 42/1/1
f 48/1/1 44/1/1 43/1/1
f 49/1/1 44/1/1 48/1/1
f 50/1/1 44/1/1 49/1/1
f 51/2/1 46/2/1 45/2/1
f 52/2/1 46/2/1 51/2/1
f 53/7/1 48/7/1 47/7/1
f 55/7/1 54/7/1 53/7/1
f 55/7/1 53/7/1 47/7/1
f 56/7/1 54/7/1 55/7/1
f 59/3/1 58/3/1 57/3/1
f 60/3/1 58/3/1 59/3/1
f 64/7/1 61/7/1 60/7/1
f 65/7/1 61/7/1 64/7/1
f 66/7/1 63/7/1 62/7/1
f 67/7/1 63/7/1 66/7/1
f 70/4/1 69/4/1 68/4/1
f 71/4/1 69/4/1 70/4/1
f 76/3/1 73/3/1 72/3/1
f 77/3/1 73/3/1 76/3/1
f 78/7/1 75/7/1 74/7/1
f 79/7/1 75/7/1 78/7/1
f 80/9/1 79/9/1 78/9/1
f 81/9/1 79/9/1 80/9/1
f 86/4/1 83/4/1 82/4/1
f 87/4/1 83/4/1 86/4/1
f 88/4/1 85/4/1 84/4/1
f 89/4/1 85/4/1 88/4/1
f 92/9/1 91/9/1 90/9/1
f 93/9/1 91/9/1 92/9/1
f 95/9/1 94/9/1 93/9/1
f 96/9/1 94/9/1 95/9/1
f 97/4/2 98/4/2 99/4/2
f 99/4/2 98/4/2 100/4/2
f 101/2/2 102/2/2 105/2/2
f 105/2/2 102/2/2 106/2/2
f 103/9/2 104/9/2 107/9/2
f 107/9/2 104/9/2 108/9/2
f 109/4/2 110/4/2 112/4/2
f 112/4/2 110/4/2 113/4/2
f 111/7/2 112/7/2 114/7/2
f 111/7/2 114/7/2 115/7/2
f 115/7/2 114/7/2 116/7/2
f 117/2/2 118/2/2 119/2/2
f 119/2/2 118/2/2 120/2/2
f 121/7/2 122/7/2 123/7/2
f 123/7/2 122/7/2 124/7/2
f 125/3/2 126/3/2 127/3/2
f 127/3/2 126/3/2 128/3/2
f 129/7/2 130/7/2 131/7/2
f 131/7/2 130/7/2 132/7/2
f 133/4/2 134/4/2 135/4/2
f 135/4/2 134/4/2 136/4/2
f 137/7/2 138/7/2 139/7/2
f 139/7/2 138/7/2 140/7/2
f 139/9/2 140/9/2 143/9/2
f 143/9/2 140/9/2 144/9/2
f 141/7/2 142/7/2 145/7/2
f 145/7/2 142/7/2 146/7/2
f 147/11/2 148/11/2 151/11/2
f 148/11/2 149/11/2 151/11/2
f 151/11/2 149/11/2 152/11/2
f 152/11/2 149/11/2 153/11/2
f 153/11/2 149/11/2 154/11/2
f 150/3/2 151/3/2 155/3/2
f 155/3/2 151/3/2 156/3/2
f 152/5/2 153/5/2 157/5/2
f 157/5/2 153/5/2 158/5/2
f 156/1/2 157/1/2 160/1/2
f 160/1/2 157/1/2 161/1/2
f 158/1/2 159/1/2 162/1/2
f 162/1/2 159/1/2 163/1/2
f 163/1/2 159/1/2 164/1/2
f 161/7/2 162/7/2 165/7/2
f 162/7/2 163/7/2 165/7/2
f 165/7/2 163/7/2 166/7/2
f 163/2/2 164/2/2 167/2/2
f 166/7/2 163/7/2 167/7/2
f 167/2/2 164/2/2 168/2/2
f 166/7/2 167/7/2 169/7/2
f 169/7/2 167/7/2 170/7/2
f 171/4/2 172/4/2 175/4/2
f 175/4/2 172/4/2 176/4/2
f 173/4/2 174/4/2 177/4/2
f 177/4/2 174/4/2 178/4/2
f 179/3/2 180/3/2 183/3/2
f 183/3/2 180/3/2 184/3/2
f 181/7/2 182/7/2 185/7/2
f 185/7/2 182/7/2 186/7/2
f 184/7/2 185/7/2 188/7/2
f 188/7/2 185/7/2 189/7/2
f 187/9/2 188/9/2 190/9/2
f 190/9/2 188/9/2 191/9/2
f 191/9/2 192/9/2 193/9/2
f 193/9/2 192/9/2 194/9/2
f 200/9/3 196/9/3 195/9/3
f 201/9/3 196/9/3 200/9/3
f 203/2/3 198/2/3 197/2/3
f 204/2/3 198/2/3 203/2/3
f 205/7/3 201/7/3 200/7/3
f 205/7/3 200/7/3 199/7/3
f 206/7/3 201/7/3 205/7/3
f 207/2/3 203/2/3 202/2/3
f 208/2/3 203/2/3 207/2/3
f 210/3/3 207/3/3 206/3/3
f 211/3/3 207/3/3 210/3/3
f 214/3/3 210/3/3 209/3/3
f 215/3/3 210/3/3 214/3/3
f 216/4/3 213/4/3 212/4/3
f 217/4/3 213/4/3 216/4/3
f 222/4/3 219/4/3 218/4/3
f 223/4/3 219/4/3 222/4/3
f 225/1/3 221/1/3 220/1/3
f 226/1/3 221/1/3 225/1/3
f 229/8/3 224/8/3 223/8/3
f 230/5/3 225/5/3 224/5/3
f 230/8/3 224/8/3 229/8/3
f 231/5/3 225/5/3 230/5/3
f 232/7/3 227/7/3 226/7/3
f 233/4/3 229/4/3 228/4/3
f 234/8/3 230/8/3 229/8/3
f 234/4/3 229/4/3 233/4/3
f 235/8/3 230/8/3 234/8/3
f 236/1/3 232/1/3 231/1/3
f 236/7/3 227/7/3 232/7/3
f 237/7/3 227/7/3 236/7/3
f 238/11/3 235/11/3 234/11/3
f 239/11/3 235/11/3 238/11/3
f 240/1/3 236/1/3 231/1/3
f 241/1/3 236/1/3 240/1/3
f 243/3/3 240/3/3 239/3/3
f 244/3/3 240/3/3 243/3/3
f 245/9/3 242/9/3 241/9/3
f 246/9/3 242/9/3 245/9/3
f 249/3/3 248/3/3 247/3/3
f 250/3/3 248/3/3 249/3/3
f 251/3/3 248/3/3 250/3/3
f 253/7/3 252/7/3 251/7/3
f 254/7/3 252/7/3 253/7/3
f 255/7/3 252/7/3 254/7/3
f 259/7/3 257/7/3 256/7/3
f 260/7/3 257/7/3 259/7/3
f 262/7/3 259/7/3 258/7/3
f 263/7/3 259/7/3 262/7/3
f 264/9/3 261/9/3 260/9/3
f 265/9/3 261/9/3 264/9/3
f 268/3/3 267/3/3 266/3/3
f 269/3/3 267/3/3 268/3/3
f 274/7/3 271/7/3 270/7/3
f 275/7/3 271/7/3 274/7/3
f 276/7/3 273/7/3 272/7/3
f 277/7/3 273/7/3 276/7/3
f 280/4/3 279/4/3 278/4/3
f 281/4/3 279/4/3 280/4/3
f 286/4/3 283/4/3 282/4/3
f 287/4/3 283/4/3 286/4/3
f 288/9/3 285/9/3 284/9/3
f 289/9/3 285/9/3 288/9/3
f 290/9/4 291/9/4 294/9/4
f 294/9/4 291/9/4 295/9/4
f 292/2/4 293/2/4 297/2/4
f 297/2/4 293/2/4 298/2/4
f 296/2/4 297/2/4 299/2/4
f 299/2/4 297/2/4 300/2/4
f 301/4/4 302/4/4 303/4/4
f 303/4/4 302/4/4 304/4/4
f 305/4/4 306/4/4 307/4/4
f 307/4/4 306/4/4 308/4/4
f 309/4/4 310/4/4 311/4/4
f 311/4/4 310/4/4 312/4/4
f 313/3/4 314/3/4 317/3/4
f 317/3/4 314/3/4 318/3/4
f 315/9/4 316/9/4 319/9/4
f 319/9/4 316/9/4 320/9/4
f 321/3/4 322/3/4 323/3/4
f 323/3/4 322/3/4 324/3/4
f 325/7/4 326/7/4 329/7/4
f 329/7/4 326/7/4 330/7/4
f 327/9/4 328/9/4 331/9/4
f 331/9/4 328/9/4 332/9/4
f 333/3/4 334/3/4 337/3/4
f 337/3/4 334/3/4 338/3/4
f 335/3/4 336/3/4 339/3/4
f 339/3/4 336/3/4 340/3/4
f 340/7/4 341/7/4 342/7/4
f 339/7/4 340/7/4 342/7/4
f 342/7/4 341/7/4 343/7/4
f 344/7/4 345/7/4 346/7/4
f 346/7/4 345/7/4 347/7/4
f 347/7/4 345/7/4 348/7/4
f 351/1/4 352/1/4 353/1/4
f 349/11/4 350/11/4 355/11/4
f 350/6/4 351/6/4 355/6/4
f 351/1/4 353/1/4 356/1/4
f 355/6/4 351/6/4 356/6/4
f 353/7/4 354/7/4 357/7/4
f 356/1/4 353/1/4 357/1/4
f 357/7/4 354/7/4 358/7/4
f 358/7/4 354/7/4 359/7/4
f 349/11/4 355/11/4 360/11/4
f 357/7/4 358/7/4 362/7/4
f 362/7/4 358/7/4 363/7/4
f 349/11/4 360/11/4 365/11/4
f 360/7/4 361/7/4 366/7/4
f 365/11/4 360/11/4 366/11/4
f 361/1/4 362/1/4 367/1/4
f 366/7/4 361/7/4 367/7/4
f 362/2/4 363/2/4 368/2/4
f 367/1/4 362/1/4 368/1/4
f 368/2/4 363/2/4 369/2/4
f 364/4/4 365/4/4 370/4/4
f 370/4/4 365/4/4 371/4/4
f 366/7/4 367/7/4 372/7/4
f 372/7/4 367/7/4 373/7/4
f 374/4/4 375/4/4 378/4/4
f 378/4/4 375/4/4 379/4/4
f 376/9/4 377/9/4 380/9/4
f 380/9/4 377/9/4 381/9/4
f 382/7/4 383/7/4 385/7/4
f 383/9/4 384/9/4 386/9/4
f 385/7/4 383/7/4 386/7/4
f 386/9/4 384/9/4 387/9/4
f 394/4/5 389/4/5 388/4/5
f 395/4/5 389/4/5 394/4/5
f 396/4/5 391/4/5 390/4/5
f 397/4/5 391/4/5 396/4/5
f 398/4/5 393/4/5 392/4/5
f 399/4/5 393/4/5 398/4/5
f 402/4/5 401/4/5 400/4/5
f 403/4/5 401/4/5 402/4/5
f 406/7/5 405/7/5 404/7/5
f 407/7/5 405/7/5 406/7/5
f 412/8/5 408/8/5 407/8/5
f 413/8/5 408/8/5 412/8/5
f 414/11/5 410/11/5 409/11/5
f 415/8/5 412/8/5 411/8/5
f 416/10/5 413/10/5 412/10/5
f 416/8/5 412/8/5 415/8/5
f 416/10/5 414/10/5 413/10/5
f 417/11/5 410/11/5 414/11/5
f 417/10/5 414/10/5 416/10/5
f 418/10/5 416/10/5 415/10/5
f 419/11/5 417/11/5 416/11/5
f 419/10/5 416/10/5 418/10/5
f 420/11/5 410/11/5 417/11/5
f 420/11/5 417/11/5 419/11/5
f 421/11/5 419/11/5 418/11/5
f 421/11/5 420/11/5 419/11/5
f 422/11/5 420/11/5 421/11/5
f 427/9/5 424/9/5 423/9/5
f 428/9/5 424/9/5 427/9/5
f 429/3/5 426/3/5 425/3/5
f 430/3/5 426/3/5 429/3/5
f 431/3/5 426/3/5 430/3/5
f 435/3/5 432/3/5 431/3/5
f 436/3/5 432/3/5 435/3/5
f 437/3/5 434/3/5 433/3/5
f 440/3/5 437/3/5 433/3/5
f 441/3/5 437/3/5 440/3/5
f 446/7/5 439/7/5 438/7/5
f 447/7/5 439/7/5 446/7/5
f 448/4/5 443/4/5 442/4/5
f 449/4/5 443/4/5 448/4/5
f 450/7/5 445/7/5 444/7/5
f 451/7/5 445/7/5 450/7/5
f 454/3/5 453/3/5 452/3/5
f 455/3/5 453/3/5 454/3/5
f 458/7/5 457/7/5 456/7/5
f 459/7/5 457/7/5 458/7/5
f 462/2/5 461/2/5 460/2/5
f 463/2/5 461/2/5 462/2/5
f 466/9/5 465/9/5 464/9/5
f 467/9/5 465/9/5 466/9/5
f 470/3/5 469/3/5 468/3/5
f 471/3/5 469/3/5 470/3/5
f 474/2/5 473/2/5 472/2/5
f 475/2/5 473/2/5 474/2/5
f 478/9/5 477/9/5 476/9/5
f 479/9/5 477/9/5 478/9/5
f 482/9/5 481/9/5 480/9/5
f 483/9/5 481/9/5 482/9/5
f 484/4/6 485/4/6 486/4/6
f 486/4/6 485/4/6 487/4/6
f 488/4/6 489/4/6 490/4/6
f 490/4/6 489/4/6 491/4/6
f 492/9/6 493/9/6 497/9/6
f 493/7/6 494/7/6 498/7/6
f 497/9/6 493/9/6 498/9/6
f 498/7/6 494/7/6 499/7/6
f 495/3/6 496/3/6 500/3/6
f 500/3/6 496/3/6 501/3/6
f 501/3/6 502/3/6 503/3/6
f 503/3/6 502/3/6 504/3/6
f 505/3/6 506/3/6 509/3/6
f 509/3/6 506/3/6 510/3/6
f 507/7/6 508/7/6 513/7/6
f 513/7/6 508/7/6 514/7/6
f 511/4/6 512/4/6 515/4/6
f 515/4/6 512/4/6 516/4/6
f 517/3/6 518/3/6 520/3/6
f 520/3/6 518/3/6 521/3/6
f 519/1/6 520/1/6 525/1/6
f 525/1/6 520/1/6 526/1/6
f 522/1/6 523/1/6 527/1/6
f 527/1/6 523/1/6 528/1/6
f 524/3/6 525/3/6 530/3/6
f 530/3/6 525/3/6 531/3/6
f 528/7/6 529/7/6 532/7/6
f 532/7/6 529/7/6 533/7/6
f 534/1/6 535/1/6 536/1/6
f 536/1/6 535/1/6 537/1/6
f 538/9/6 539/9/6 540/9/6
f 540/9/6 539/9/6 541/9/6
f 542/2/6 543/2/6 544/2/6
f 544/2/6 543/2/6 545/2/6
f 545/7/6 546/7/6 549/7/6
f 549/7/6 546/7/6 550/7/6
f 547/9/6 548/9/6 551/9/6
f 551/9/6 548/9/6 552/9/6
f 549/7/6 550/7/6 555/7/6
f 550/7/6 551/7/6 555/7/6
f 555/7/6 551/7/6 556/7/6
f 553/3/6 554/3/6 557/3/6
f 557/3/6 554/3/6 558/3/6
f 559/7/6 560/7/6 562/7/6
f 560/2/6 561/2/6 563/2/6
f 562/7/6 560/7/6 563/7/6
f 563/2/6 561/2/6 564/2/6
f 565/2/6 566/2/6 567/2/6
f 567/2/6 566/2/6 568/2/6
f 569/7/6 570/7/6 573/7/6
f 571/9/6 572/9/6 574/9/6
f 574/9/6 572/9/6 575/9/6
f 569/7/6 573/7/6 576/7/6
f 573/7/6 574/7/6 576/7/6
f 576/7/6 574/7/6 577/7/6
f 577/7/6 574/7/6 578/7/6
f 578/7/6 574/7/6 579/7/6
f 577/7/6 578/7/6 582/7/6
f 582/7/6 578/7/6 583/7/6
f 580/9/6 581/9/6 584/9/6
f 584/9/6 581/9/6 585/9/6
